<svg xmlns="http://www.w3.org/2000/svg" version="1.1" xmlns:xlink="http://www.w3.org/1999/xlink" xmlns:svgjs="http://svgjs.dev/svgjs" width="1000" height="1000" viewBox="0 0 1000 1000"><g transform="matrix(1,0,0,1,0,0)"><svg viewBox="0 0 280 280" data-background-color="#ffe1e0" preserveAspectRatio="xMidYMid meet" height="1000" width="1000" xmlns="http://www.w3.org/2000/svg" xmlns:xlink="http://www.w3.org/1999/xlink"><g id="tight-bounds" transform="matrix(1,0,0,1,0,0)"><svg viewBox="0 0 280 280" height="280" width="280"><g><svg viewBox="0 0 280 280" height="280" width="280"><g><svg viewBox="0 0 280 280" height="280" width="280"><g id="textblocktransform"><svg viewBox="0 0 280 280" height="280" width="280" id="textblock"><g><svg viewBox="0 0 280 280" height="280" width="280"><g transform="matrix(1,0,0,1,91.68911156867026,90.50252531694167)"><svg viewBox="0 0 96.62177686265947 98.99494936611664" height="98.99494936611664" width="96.62177686265947"><g><svg xmlns="http://www.w3.org/2000/svg" viewBox="6.278429919034849 4.67 87.91078229490414 90.07000000000001" x="0" y="0" height="98.99494936611664" width="96.62177686265947" class="icon-kg-0" data-fill-palette-color="accent" id="kg-0"><path d="M67.82 20.18A26.13 26.13 0 0 0 30 56a19.84 19.84 0 0 1 4.31 12.4v7.89a1.5 1.5 0 0 0 1.5 1.5h1.73V93.24a1.5 1.5 0 0 0 1.5 1.5h22.7a1.5 1.5 0 0 0 1.5-1.5V77.79H65a1.5 1.5 0 0 0 1.5-1.5V68.41A20.59 20.59 0 0 1 71 55.7a25.87 25.87 0 0 0 5.51-16.05A26.17 26.17 0 0 0 67.82 20.18ZM46.14 77.79l-5.59 2.78V77.79ZM40.54 91.37l19.7-9.8V85L46.59 91.74h-6Zm12.78 0.37l6.92-3.44v3.44Zm6.92-13.51l-0.16 0.06L40.54 88v-4.1l12.33-6.13h7.37Zm8.4-24.38a23.55 23.55 0 0 0-5.18 14.55v6.38h-3V62.33a1.5 1.5 0 0 0-3 0V74.79H43.76V62.33a1.5 1.5 0 0 0-3 0V74.79H37.32V68.4a22.84 22.84 0 0 0-5-14.28 23.13 23.13 0 1 1 36.3-0.27Z" fill="#5e0000" data-fill-palette-color="accent"></path><path d="M58.2 45a7.27 7.27 0 0 0-6.89 0.08l-0.62 0.32a6.39 6.39 0 0 0-4.32 0.27 8.09 8.09 0 0 0-4.63 5A7.63 7.63 0 0 0 46.69 60a1.5 1.5 0 0 0 0.93-2.85 4.61 4.61 0 0 1-3-5.65 5 5 0 0 1 2.65-3 5.87 5.87 0 0 0-0.85 2.23A4.7 4.7 0 0 0 49.86 56a4 4 0 0 0 4.61-1.71A5.5 5.5 0 0 0 54.88 50a7.39 7.39 0 0 0-1.34-2.63 3.86 3.86 0 0 1 3.11 0.15A3.61 3.61 0 0 1 58.38 50a5.34 5.34 0 0 1-1.29 4.17 1.5 1.5 0 0 0 2.39 1.81 8.11 8.11 0 0 0 1.84-6.55A6.58 6.58 0 0 0 58.2 45Zm-6.32 7.81c-0.26 0.45-0.85 0.42-1.3 0.31a1.72 1.72 0 0 1-1.18-1.9 4.12 4.12 0 0 1 1.47-2.29A4.38 4.38 0 0 1 52 50.83 2.6 2.6 0 0 1 51.88 52.79Z" fill="#5e0000" data-fill-palette-color="accent"></path><path d="M50 12.17a1.5 1.5 0 0 0 1.5-1.5V6.17a1.5 1.5 0 0 0-3 0v4.5A1.5 1.5 0 0 0 50 12.17Z" fill="#5e0000" data-fill-palette-color="accent"></path><path d="M77.64 14.07a1.5 1.5 0 0 0-2.1 0.27l-2.74 3.57a1.5 1.5 0 1 0 2.38 1.83l2.74-3.57A1.5 1.5 0 0 0 77.64 14.07Z" fill="#5e0000" data-fill-palette-color="accent"></path><path d="M94.15 39.73a1.5 1.5 0 0 0-1.8-1.12l-4.38 1a1.5 1.5 0 1 0 0.68 2.92l4.38-1A1.5 1.5 0 0 0 94.15 39.73Z" fill="#5e0000" data-fill-palette-color="accent"></path><path d="M91.37 64.56l-4.19-1.64a1.5 1.5 0 1 0-1.09 2.79l4.19 1.64a1.5 1.5 0 0 0 1.09-2.79Z" fill="#5e0000" data-fill-palette-color="accent"></path><path d="M26.62 20.29a1.5 1.5 0 0 0 1.19-2.42l-2.74-3.57a1.5 1.5 0 0 0-2.38 1.83l2.74 3.57A1.5 1.5 0 0 0 26.62 20.29Z" fill="#5e0000" data-fill-palette-color="accent"></path><path d="M12.21 42.41a1.5 1.5 0 0 0 0.34-3l-4.38-1a1.5 1.5 0 1 0-0.68 2.92l4.38 1A1.52 1.52 0 0 0 12.21 42.41Z" fill="#5e0000" data-fill-palette-color="accent"></path><path d="M13.67 63.64L9.48 65.28a1.5 1.5 0 0 0 1.09 2.79l4.19-1.64a1.5 1.5 0 0 0-1.09-2.79Z" fill="#5e0000" data-fill-palette-color="accent"></path></svg></g></svg></g><g><path d="M30.916 103.833l-8.234-3.056-17.158 2.874-1.23 2.028-1.513-0.561 3.122-8.411 1.512 0.561-0.716 3.101 11.933-1.615 3.281-0.227-2.301-2.415-8.069-8.794-1.478 2.808-1.512-0.561 2.834-7.636 1.512 0.561-0.48 2.467 11.324 12.847 8.233 3.056 1.841-3.873 1.513 0.561-4.033 10.866-1.512-0.561z" fill="#5e0000" data-fill-palette-color="primary"></path><path d="M69.661 49.837l-14.625-18.912-3.133 1.906-0.987-1.276 8.224-6.36 0.986 1.277-2.633 2.552 14.626 18.913 3.114-1.931 0.963 1.245-8.224 6.36-0.986-1.276z" fill="#5e0000" data-fill-palette-color="primary"></path><path d="M124.843 27.086l7.56-12.583-8.544-11.267-2.907-0.293-0.087-1.61 10.49-0.565 0.087 1.611-3.794 0.653 6.836 9.744 5.68-10.457-3.393-0.227-0.086-1.611 8.949-0.481 0.086 1.611-2.939 0.607-7.216 11.736 9.175 12.061 3.021 0.177 0.086 1.611-10.46 0.562-0.087-1.61 3.661-0.536-7.406-10.501-5.977 11.221 3.876 0.13 0.086 1.611-9.853 0.53-0.087-1.611z" fill="#5e0000" data-fill-palette-color="primary"></path><path d="M204.204 47.984c-3.01-1.971-4.668-4.244-4.975-6.817-0.303-2.579 0.69-5.615 2.978-9.108v0l7.633-11.653-2.125-1.881 0.884-1.349 7.688 5.036-0.884 1.349-2.922-1.426-7.819 11.937c-2.001 3.054-2.869 5.58-2.606 7.577 0.267 1.992 1.402 3.644 3.407 4.958v0c2.01 1.317 3.98 1.623 5.909 0.918 1.933-0.71 3.776-2.403 5.53-5.079v0l7.96-12.154-2.362-2.082 0.884-1.35 6.964 4.562-0.884 1.349-2.606-1.219-7.9 12.062c-2.135 3.26-4.499 5.215-7.092 5.866-2.598 0.647-5.152 0.149-7.662-1.496z" fill="#5e0000" data-fill-palette-color="primary"></path><path d="M247.494 95.862l22.332-8.538-0.746-3.094 1.507-0.576 6.632 17.346-4.964 2.463-0.644-1.684 3.004-2.235-3.411-9.453-10.203 3.901 2.566 6.407 3.086-0.658 0.668 1.749-7.748 2.962-0.668-1.749 2.811-1.597-2.362-6.485-10.798 4.129 4.379 10.617 5.063 0.111 0.123 1.883-6.341 1.177-7.264-19.002 1.506-0.576z" fill="#5e0000" data-fill-palette-color="primary"></path><path d="M15.05 189.061l8.234-3.056 11.129-13.37-0.391-2.341 1.513-0.561 3.121 8.411-1.512 0.562-1.481-2.818-7.99 9.009-2.339 2.312 3.319 0.33 11.853 1.4-0.712-3.092 1.512-0.561 2.834 7.637-1.512 0.561-1.246-2.183-16.963-2.35-8.234 3.055 1.132 4.137-1.513 0.561-4.032-10.866 1.512-0.562z" fill="#5e0000" data-fill-palette-color="primary"></path><path d="M59.309 250.556l14.625-18.913-2.633-2.552 0.987-1.276 8.224 6.359-0.987 1.276-3.133-1.906-14.626 18.912 2.652 2.529-0.963 1.245-8.223-6.36 0.987-1.276z" fill="#5e0000" data-fill-palette-color="primary"></path><path d="M123.934 276.819l8.866-11.699-7.285-12.119-2.86-0.602 0.087-1.611 10.49 0.564-0.087 1.611-3.842 0.242 5.752 10.421 6.769-9.787-3.349-0.589 0.087-1.611 8.948 0.481-0.086 1.611-2.987 0.288-8.434 10.895 7.828 12.976 2.984 0.499-0.086 1.611-10.461-0.563 0.087-1.611 3.697-0.14-6.236-11.235-7.148 10.515 3.84 0.546-0.086 1.611-9.854-0.53 0.086-1.611z" fill="#5e0000" data-fill-palette-color="primary"></path><path d="M215.942 256.944c-3.01 1.971-5.755 2.583-8.237 1.836-2.485-0.753-4.872-2.876-7.159-6.369v0l-7.633-11.654-2.573 1.198-0.884-1.35 7.689-5.036 0.884 1.35-2.475 2.109 7.818 11.937c2.001 3.054 3.969 4.86 5.905 5.416 1.932 0.551 3.901 0.171 5.906-1.142v0c2.01-1.317 3.078-3 3.203-5.05 0.122-2.056-0.694-4.422-2.447-7.099v0l-7.961-12.153-2.852 1.333-0.884-1.349 6.964-4.562 0.883 1.35-2.158 1.902 7.9 12.061c2.135 3.26 2.983 6.208 2.544 8.845-0.445 2.64-1.922 4.783-4.433 6.427z" fill="#5e0000" data-fill-palette-color="primary"></path><path d="M263.302 197.188l-22.332-8.538-1.509 2.803-1.507-0.576 6.632-17.347 5.342 1.477-0.644 1.684-3.73-0.339-3.764 9.317 10.203 3.901 2.362-6.485-2.737-1.568 0.668-1.749 7.748 2.962-0.668 1.749-3.16-0.686-2.567 6.407 10.799 4.128 3.821-10.831-3.698-3.46 1.164-1.485 5.509 3.354-7.265 19.002-1.507-0.576z" fill="#5e0000" data-fill-palette-color="primary"></path><path d="M4.52 143.503c0-5.882 4.768-10.651 10.651-10.651 5.882 0 10.651 4.768 10.651 10.651 0 5.882-4.768 10.651-10.651 10.651-5.882 0-10.651-4.768-10.651-10.651z" fill="#5e0000" data-fill-palette-color="primary"></path><path d="M255.457 143.503c0-5.882 4.768-10.651 10.651-10.651 5.882 0 10.651 4.768 10.651 10.651 0 5.882-4.768 10.651-10.651 10.651-5.882 0-10.651-4.768-10.651-10.651z" fill="#5e0000" data-fill-palette-color="primary"></path></g></svg></g></svg></g></svg></g><g></g></svg></g><defs></defs></svg><rect width="280" height="280" fill="none" stroke="none" visibility="hidden"></rect></g></svg></g></svg>